<svg width="29" height="29" viewBox="0 0 29 29" fill="none" xmlns="http://www.w3.org/2000/svg">
<path d="M6.38897 10.4898L2.696 14.2055C2.60537 14.2961 2.56006 14.4094 2.56006 14.5227C2.56006 14.6586 2.60537 14.7719 2.696 14.8398L6.36631 18.5102C6.54756 18.6914 6.81943 18.6914 7.00068 18.5102C7.09131 18.4195 7.13662 18.3063 7.13662 18.193C7.13662 18.0797 7.09131 17.9438 7.00068 17.8758L4.10068 14.9531H18.5327C18.7819 14.9531 18.9858 14.7492 18.9858 14.5C18.9858 14.2508 18.7819 14.0469 18.5327 14.0469H4.10068L7.02334 11.1242C7.11397 11.0336 7.15928 10.9203 7.15928 10.807C7.15928 10.6938 7.11397 10.5805 7.02334 10.4898C6.86475 10.3086 6.57022 10.3086 6.38897 10.4898Z" fill="#5B5A56"/>
<path d="M21.5234 3.625H11.5547C10.3086 3.625 9.28906 4.64453 9.28906 5.89062V9.58359H10.1953V5.89062C10.1953 5.14297 10.807 4.53125 11.5547 4.53125H21.5234C22.2711 4.53125 22.8828 5.14297 22.8828 5.89062V23.3359C22.8828 24.0836 22.2711 24.6953 21.5234 24.6953H11.5547C10.807 24.6953 10.1953 24.0836 10.1953 23.3359V19.4164H9.28906V23.3359C9.28906 24.582 10.3086 25.6016 11.5547 25.6016H21.5234C22.7695 25.6016 23.7891 24.582 23.7891 23.3359V5.89062C23.7891 4.64453 22.7695 3.625 21.5234 3.625Z" fill="#FF760C"/>
</svg>
