<svg width="16" height="16" viewBox="0 0 16 16" fill="none" xmlns="http://www.w3.org/2000/svg">
<g clip-path="url(#clip0_13_180)">
<path d="M6.66675 8.00001C6.66675 8.35363 6.80722 8.69277 7.05727 8.94281C7.30732 9.19286 7.64646 9.33334 8.00008 9.33334C8.3537 9.33334 8.69284 9.19286 8.94289 8.94281C9.19294 8.69277 9.33341 8.35363 9.33341 8.00001C9.33341 7.64638 9.19294 7.30724 8.94289 7.0572C8.69284 6.80715 8.3537 6.66667 8.00008 6.66667C7.64646 6.66667 7.30732 6.80715 7.05727 7.0572C6.80722 7.30724 6.66675 7.64638 6.66675 8.00001Z" stroke="#79756C" stroke-width="1.33333" stroke-linecap="round" stroke-linejoin="round"/>
<path d="M14 8C12.4 10.6667 10.4 12 8 12C5.6 12 3.6 10.6667 2 8C3.6 5.33333 5.6 4 8 4C10.4 4 12.4 5.33333 14 8Z" stroke="#79756C" stroke-width="1.33333" stroke-linecap="round" stroke-linejoin="round"/>
</g>
<defs>
<clipPath id="clip0_13_180">
<rect width="16" height="16" fill="white"/>
</clipPath>
</defs>
</svg>
