<svg width="215" height="53" viewBox="0 0 215 53" fill="none" xmlns="http://www.w3.org/2000/svg">
<path fill-rule="evenodd" clip-rule="evenodd" d="M32.2941 17.4476C20.9627 17.4476 14.2529 21.2148 14.2529 32.0925C14.2529 36.5912 18.3996 41.2658 22.5505 45.1539C26.4513 48.8087 30.4497 52.205 32.2962 52.205C34.1427 52.205 38.1431 48.8024 42.0418 45.1539C46.1949 41.2721 50.3395 36.5891 50.3395 32.0925C50.3395 21.2169 43.6276 17.4476 32.2941 17.4476ZM24.7087 26.8901C24.7087 26.4211 24.895 25.9714 25.2266 25.6398C25.5581 25.3083 26.0079 25.122 26.4768 25.122C26.9457 25.122 27.3954 25.3083 27.727 25.6398C28.0586 25.9714 28.2449 26.4211 28.2449 26.8901C28.2449 27.359 28.0586 27.8087 27.727 28.1403C27.3954 28.4719 26.9457 28.6581 26.4768 28.6581C26.0079 28.6581 25.5581 28.4719 25.2266 28.1403C24.895 27.8087 24.7087 27.359 24.7087 26.8901ZM32.2941 41.7555C29.4321 41.7555 27.1149 39.8772 27.1149 37.5579C27.1149 35.2407 29.4342 33.3624 32.2941 33.3624C35.1561 33.3624 37.4753 35.2407 37.4753 37.56C37.4753 39.8772 35.1539 41.7555 32.2941 41.7555ZM38.1177 28.6581C37.6786 28.6587 37.255 28.4958 36.9293 28.2011C36.6037 27.9065 36.3994 27.5013 36.3561 27.0643C36.3129 26.6273 36.4338 26.1898 36.6953 25.8371C36.9568 25.4843 37.3403 25.2415 37.771 25.1559C38.2017 25.0703 38.6488 25.1481 39.0254 25.374C39.4019 25.5999 39.6809 25.9579 39.808 26.3782C39.9351 26.7986 39.9013 27.2512 39.713 27.6479C39.5248 28.0447 39.1957 28.3572 38.7897 28.5246C38.5746 28.6133 38.3441 28.6587 38.1113 28.6581H38.1177ZM12.4763 28.1409C8.84475 28.2426 7.51763 23.2712 9.02919 20.4007C10.5513 17.6829 12.2855 17.1147 13.4727 17.1147C14.2773 17.0248 15.0902 17.1814 15.8038 17.5638C16.5175 17.9462 17.0981 18.5363 17.4689 19.2559C14.7238 21.4637 12.9369 24.6457 12.4805 28.1387" fill="#79756C"/>
<path fill-rule="evenodd" clip-rule="evenodd" d="M32.2939 0C33.3327 0.00848 33.9899 6.14376 34.5772 7.43908C34.8803 8.10264 35.4124 7.74648 35.811 6.73524C36.8392 4.134 38.8426 0.76108 39.326 0.8904C39.8136 1.01972 39.4489 4.62796 39.1585 7.3352C39.0292 8.5436 39.4722 8.7132 40.2079 7.74648C40.4474 7.4306 41.8297 5.5968 42.4084 5.73672C42.5462 5.76852 42.7031 5.88512 42.7307 6.58896C42.7519 7.11472 43.3879 6.84336 44.274 6.01232C45.5842 4.78272 46.871 3.5616 47.1615 3.81812C47.4286 4.05344 46.7587 6.03776 46.1333 7.86732C45.7368 9.01636 45.8619 9.56756 46.4767 9.16052C46.746 8.98244 47.6957 8.36128 47.9713 8.71744C48.0413 8.8086 48.1579 8.94004 47.8738 9.71384C47.6788 10.2544 48.2914 10.1315 49.3239 9.487C50.7231 8.61356 52.1286 7.75284 52.3428 7.95C52.629 8.21288 51.711 9.89192 50.7231 11.7194C50.1443 12.7878 50.8121 12.8726 51.499 12.4402C52.2311 12.0088 53.009 11.6604 53.8183 11.4014C54.2084 11.3081 55.7708 10.3096 54.4946 13.6507C54.2656 14.2358 54.874 14.4033 55.3977 14.2803C56.562 13.8992 57.7767 13.6941 59.0017 13.6719C59.1358 13.6543 59.2722 13.6699 59.399 13.7172C59.5257 13.7645 59.639 13.8421 59.7288 13.9432C59.9324 14.2612 59.7288 14.7616 57.7297 16.8116C57.4859 17.0639 57.5262 17.2886 58.2597 17.4434C62.5993 18.355 62.3237 19.1457 62.2559 19.3641C62.1923 19.5824 61.3443 19.8729 60.2376 20.4326C59.4638 20.8226 59.6992 21.4841 60.7676 22.0628C63.6021 23.6041 63.4431 24.204 63.4113 24.3355C63.388 24.4415 63.3286 24.6535 62.7117 24.8188C62.2304 24.946 62.5209 25.4379 63.3371 26.0654C64.0706 26.6378 64.6833 27.1296 64.5794 27.3946C64.4734 27.6596 63.7229 27.7572 62.7986 27.9119C61.7683 28.0794 61.4842 28.6242 62.0905 29.2496C63.017 30.193 62.8792 30.4368 62.7753 30.5577C62.6537 30.6505 62.5145 30.7177 62.3662 30.7552C62.2179 30.7927 62.0635 30.7998 61.9124 30.776C61.4248 30.7591 61.605 30.952 61.8192 31.1004C62.2644 31.4078 64.4437 33.1314 64.3695 33.496C64.3377 33.6656 63.6975 33.5448 62.7965 33.3603C61.9146 33.1844 61.5075 32.9957 61.6538 33.532C61.8001 34.0705 61.075 34.4012 60.5111 34.4776C60.1749 34.5182 59.8364 34.5359 59.4978 34.5306C58.4314 34.5306 58.2427 35.5482 57.6534 36.4958C56.3753 38.3724 54.7311 39.9713 52.8196 41.1965C50.908 42.4217 48.7686 43.2478 46.5297 43.6254C49.5846 40.3351 52.4254 36.2902 52.4254 32.0926C52.4254 31.4481 52.4042 30.8269 52.3597 30.227C57.5198 30.121 59.5677 23.5341 57.4053 19.4277L57.3926 19.4065L57.3799 19.3832C56.057 17.0215 53.973 15.0266 51.1153 15.0266C49.9656 14.9348 48.8137 15.1747 47.7962 15.7176C46.7787 16.2606 45.9382 17.0839 45.3743 18.09C41.9145 16.129 37.3946 15.3594 32.2939 15.3594C27.1953 15.3594 22.6755 16.129 19.2178 18.09C18.6537 17.0835 17.8129 16.26 16.7949 15.717C15.777 15.1741 14.6247 14.9344 13.4747 15.0266C10.6212 15.0266 8.53507 17.0194 7.21219 19.3832L7.19947 19.4044L7.18675 19.4277C5.02435 23.5405 7.07227 30.121 12.2324 30.227C12.188 30.8478 12.1661 31.4701 12.1666 32.0926C12.1666 36.2944 15.0074 40.3394 18.0624 43.6254C15.8232 43.2477 13.6835 42.4216 11.7716 41.1964C9.85974 39.9713 8.21515 38.3724 6.93659 36.4958C6.34299 35.5482 6.16067 34.5306 5.09219 34.5306C4.75511 34.5369 4.41803 34.5178 4.08095 34.4776C3.52127 34.4034 2.80047 34.0684 2.94039 33.532C3.07819 32.9957 2.67539 33.1907 1.79771 33.3603C0.896715 33.5448 0.254355 33.6656 0.222555 33.4981C0.144115 33.1314 2.32983 31.4078 2.77503 31.1004C2.98703 30.952 3.16723 30.757 2.67963 30.776C2.52852 30.7998 2.37415 30.7927 2.22586 30.7552C2.07756 30.7177 1.9384 30.6505 1.81679 30.5577C1.71079 30.4453 1.57723 30.1952 2.50155 29.2496C3.10999 28.6221 2.81743 28.0773 1.79559 27.914C0.869155 27.7572 0.118675 27.6596 0.0126747 27.3946C-0.0933253 27.1296 0.521475 26.6378 1.25499 26.0654C2.06695 25.4379 2.36163 24.9439 1.88039 24.8188C1.26135 24.6556 1.20199 24.4436 1.18079 24.3355C1.14899 24.204 0.989995 23.6041 3.82231 22.0628C4.89291 21.4841 5.12399 20.8226 4.35231 20.4326C3.24779 19.8729 2.40191 19.5888 2.33407 19.3641C2.26411 19.1394 1.99063 18.3634 6.33027 17.4434C7.06379 17.2886 7.10407 17.0618 6.86027 16.8116C4.85687 14.7552 4.65759 14.2612 4.86111 13.9432C4.95118 13.8418 5.06478 13.764 5.19193 13.7167C5.31909 13.6694 5.45591 13.654 5.59039 13.6719C6.81363 13.6931 8.02839 13.8987 9.19227 14.2803C9.71591 14.4033 10.3201 14.2379 10.0954 13.6507C8.81703 10.3096 10.3816 11.3081 10.7717 11.4014C11.5794 11.66 12.3574 12.0098 13.0888 12.4402C13.7736 12.8726 14.4456 12.7836 13.8669 11.7194C12.879 9.89616 11.961 8.215 12.2472 7.95C12.4592 7.75284 13.8648 8.61144 15.2661 9.487C16.2922 10.1294 16.9112 10.2502 16.714 9.71384C16.4321 8.94004 16.5487 8.8086 16.6186 8.71744C16.8921 8.36764 17.8419 8.98244 18.1132 9.16264C18.728 9.56544 18.8552 9.01424 18.4567 7.8652C17.8249 6.03988 17.155 4.05344 17.4285 3.816C17.7189 3.5616 19.0015 4.78272 20.3138 6.01232C21.2 6.84336 21.8381 7.11472 21.8572 6.58896C21.8847 5.883 22.0437 5.77064 22.1815 5.73672C22.7624 5.5968 24.1425 7.43272 24.3821 7.74648C25.1177 8.71532 25.5608 8.54572 25.4315 7.3352C25.141 4.62796 24.7828 1.0176 25.2619 0.8904C25.7431 0.7632 27.755 4.134 28.779 6.73524C29.1775 7.74648 29.7118 8.10476 30.0128 7.43908C30.6 6.14376 31.2572 0.00848 32.296 0" fill="#FF760C"/>
<path fill-rule="evenodd" clip-rule="evenodd" d="M52.1118 28.141C55.7433 28.2427 57.0705 23.2713 55.5568 20.4008C54.0367 17.683 52.3005 17.1148 51.1154 17.1148C50.3107 17.024 49.4974 17.1802 48.7836 17.5627C48.0698 17.9451 47.4893 18.5357 47.1192 19.256C49.8646 21.4635 51.6516 24.6457 52.1075 28.1388H52.1118V28.141ZM32.294 35.5207C30.6298 35.5207 29.2815 36.4323 29.2815 37.5601C29.2815 38.6858 30.6298 39.5974 32.2919 39.5974C33.9561 39.5974 35.3087 38.6858 35.3087 37.5601C35.3087 36.4365 33.9582 35.5207 32.294 35.5207ZM32.294 36.7969C30.9923 36.7969 30.0511 37.6258 30.0744 37.3481C30.1443 36.5425 31.41 36.074 32.294 36.074C33.1781 36.074 34.4437 36.5404 34.5137 37.346C34.537 37.6258 33.5957 36.7969 32.294 36.7969Z" fill="#79756C"/>
<path fill-rule="evenodd" clip-rule="evenodd" d="M93.248 31.9484V44.7574H96.3411V31.3293C96.3411 28.4207 94.8931 21.1597 86.9643 21.1194C85.5325 21.1392 84.1206 21.4586 82.8197 22.057C81.5187 22.6555 80.3575 23.5197 79.4108 24.5941V8.47998H76.3198V44.7574H79.4108V32.3703C79.4108 25.4718 83.6508 23.9072 86.7947 24.0302C91.2743 24.204 93.248 27.9776 93.248 31.9505V31.9484Z" fill="#FF760C"/>
<path fill-rule="evenodd" clip-rule="evenodd" d="M113.596 20.5725C115.254 20.57 116.895 20.8953 118.427 21.5294C119.959 22.1635 121.35 23.0941 122.521 24.2676L120.337 26.4512C119.005 25.1188 117.307 24.2116 115.458 23.8442C113.61 23.4767 111.694 23.6656 109.953 24.387C108.212 25.1084 106.724 26.3298 105.677 27.8968C104.63 29.4638 104.071 31.3061 104.071 33.1907C104.071 35.0753 104.63 36.9176 105.677 38.4846C106.724 40.0516 108.212 41.273 109.953 41.9944C111.694 42.7158 113.61 42.9047 115.458 42.5372C117.307 42.1698 119.005 41.2626 120.337 39.9302L122.521 42.1138C121.053 43.5816 119.247 44.6647 117.26 45.2674C115.274 45.87 113.17 45.9735 111.135 45.5687C109.099 45.1638 107.194 44.2631 105.59 42.9464C103.986 41.6297 102.731 39.9376 101.936 38.0201C101.142 36.1025 100.833 34.0186 101.037 31.9531C101.24 29.8875 101.95 27.9041 103.103 26.1784C104.257 24.4527 105.818 23.0381 107.648 22.0599C109.479 21.0817 111.522 20.5701 113.598 20.5703H113.594L113.596 20.5725ZM139.776 23.6613C142.303 23.6613 144.727 24.6653 146.514 26.4524C148.301 28.2395 149.305 30.6633 149.305 33.1907C149.305 35.7181 148.301 38.1419 146.514 39.929C144.727 41.7161 142.303 42.7201 139.776 42.7201C137.248 42.7201 134.824 41.7161 133.037 39.929C131.25 38.1419 130.246 35.7181 130.246 33.1907C130.246 30.6633 131.25 28.2395 133.037 26.4524C134.824 24.6653 137.248 23.6613 139.776 23.6613ZM139.776 20.5703C141.446 20.5487 143.105 20.859 144.654 21.4834C146.204 22.1078 147.615 23.0337 148.804 24.2074C149.993 25.3812 150.937 26.7794 151.581 28.321C152.226 29.8625 152.557 31.5167 152.557 33.1875C152.557 34.8583 152.226 36.5125 151.581 38.0541C150.937 39.5956 149.993 40.9938 148.804 42.1676C147.615 43.3414 146.204 44.2673 144.654 44.8916C143.105 45.516 141.446 45.8264 139.776 45.8047C136.47 45.7441 133.32 44.3883 131.003 42.0289C128.687 39.6695 127.389 36.4951 127.389 33.1886C127.389 29.8821 128.687 26.7077 131.003 24.3483C133.32 21.9889 136.47 20.6331 139.776 20.5725V20.5703ZM179.18 33.1695H179.17V32.754C179.051 30.2486 177.95 27.8909 176.105 26.1922C174.259 24.4935 171.819 23.5909 169.312 23.68C166.805 23.7691 164.435 24.8429 162.715 26.6684C160.995 28.4938 160.064 30.9238 160.124 33.4313C160.184 35.9387 161.23 38.3214 163.036 40.0626C164.841 41.8037 167.26 42.7629 169.768 42.732C172.276 42.7012 174.67 41.6829 176.433 39.8979C178.195 38.1129 179.182 35.7052 179.18 33.1971V33.1695ZM169.651 20.5725C171.455 20.5703 173.239 20.9561 174.881 21.7038C176.524 22.4514 177.986 23.5434 179.17 24.9057V8.47998H182.263V33.1886C182.263 35.6846 181.522 38.1247 180.136 40.2001C178.749 42.2755 176.778 43.8931 174.472 44.8483C172.166 45.8035 169.628 46.0534 167.18 45.5664C164.732 45.0795 162.483 43.8775 160.718 42.1125C158.953 40.3475 157.751 38.0988 157.264 35.6507C156.777 33.2026 157.027 30.665 157.983 28.359C158.938 26.0529 160.555 24.0819 162.631 22.6951C164.706 21.3084 167.146 20.5682 169.642 20.5682L169.651 20.5725ZM208.214 29.2645C207.282 27.2064 205.649 25.5463 203.607 24.5801C201.565 23.6139 199.246 23.4044 197.064 23.9891C194.882 24.5737 192.978 25.9144 191.693 27.7721C190.407 29.6298 189.823 31.8838 190.045 34.132L208.214 29.2645ZM196.265 21.0007C197.992 20.5385 199.798 20.4482 201.562 20.736C203.326 21.0239 205.01 21.6831 206.5 22.6702C207.991 23.6572 209.254 24.9496 210.208 26.4617C211.162 27.9739 211.783 29.6713 212.032 31.4417L190.849 37.1169C191.571 38.7147 192.719 40.0824 194.168 41.0693C195.618 42.0563 197.311 42.6243 199.062 42.7109C200.813 42.7975 202.554 42.3992 204.094 41.56C205.633 40.7208 206.911 39.4731 207.787 37.9543L210.463 39.5019C209.425 41.299 207.96 42.8125 206.198 43.9082C204.435 45.0039 202.43 45.6481 200.359 45.7837C198.288 45.9194 196.216 45.5423 194.326 44.6858C192.435 43.8293 190.785 42.5199 189.522 40.8735C188.259 39.2272 187.421 37.2947 187.082 35.2472C186.744 33.1997 186.916 31.1003 187.583 29.1351C188.25 27.1699 189.391 25.3995 190.905 23.9806C192.42 22.5618 194.261 21.5382 196.265 21.0007Z" fill="#79756C"/>
</svg>
